<?xml version="1.0" encoding="utf-8"?>
<!-- Generator: Adobe Illustrator 28.3.0, SVG Export Plug-In . SVG Version: 6.00 Build 0)  -->
<svg version="1.1" id="Capa_1" xmlns="http://www.w3.org/2000/svg" xmlns:xlink="http://www.w3.org/1999/xlink" x="0px" y="0px"
	 viewBox="0 0 1455.14 352.93" style="enable-background:new 0 0 1455.14 352.93;" xml:space="preserve">
<style type="text/css">
	.st0{enable-background:new    ;}
	.st1{fill:#00FFFF;}
	.st2{fill:#278DCD;}
</style>
<g class="st0">
	<path class="st1" d="M87.37,230.61l-49.85-64.32l49.85-64.32h34.84L72.9,166.03l50.38,64.59H87.37z"/>
</g>
<g class="st0">
	<path class="st1" d="M195.03,241.33l57.48-133.46h-50.8v25.62h-26.91v-49.3H280.7v23.68l-56.18,133.46H195.03z"/>
</g>
<g class="st0">
	<path class="st2" d="M367.8,243.84c-11.72,0-22.04-1.81-30.97-5.44c-8.93-3.63-15.86-8.79-20.79-15.48
		c-4.93-6.7-7.39-14.6-7.39-23.71h35.15c0,5.4,2.18,9.53,6.56,12.42c4.37,2.89,10.28,4.33,17.72,4.33h12
		c8.74,0,15.25-1.58,19.53-4.74c4.28-3.16,6.42-7.53,6.42-13.11c0-10.6-7.91-17.11-23.71-19.53l-21.48-2.79
		c-32.18-4.65-48.27-19.99-48.27-46.03c0-14.51,4.88-25.53,14.65-33.06c9.77-7.53,23.95-11.3,42.55-11.3h10.6
		c17.3,0,31.2,3.86,41.71,11.58c10.51,7.72,15.76,17.9,15.76,30.55h-35.15c0-4.46-1.95-7.95-5.86-10.46
		c-3.91-2.51-9.49-3.77-16.74-3.77h-10.6c-15.25,0-22.88,5.49-22.88,16.46c0,9.49,6.79,15.25,20.37,17.3l21.76,3.35
		c17.3,2.42,30.18,7.44,38.64,15.07c8.46,7.63,12.69,18.23,12.69,31.81c0,14.7-5.07,26.13-15.21,34.32
		c-10.14,8.19-25.07,12.28-44.78,12.28H367.8z"/>
	<path class="st2" d="M541.06,243.84c-19.72,0-35.34-5.44-46.87-16.32c-11.54-10.88-17.3-25.53-17.3-43.94v-37.94
		c0-18.41,5.76-33.06,17.3-43.94c11.53-10.88,27.15-16.32,46.87-16.32c19.71,0,35.34,5.44,46.87,16.32
		c11.53,10.88,17.3,25.44,17.3,43.66v38.22c0,18.41-5.77,33.06-17.3,43.94C576.39,238.4,560.77,243.84,541.06,243.84z
		 M541.06,213.43c9.3,0,16.5-2.55,21.62-7.67c5.11-5.11,7.67-12.51,7.67-22.18v-37.94c0-9.67-2.56-17.06-7.67-22.18
		c-5.12-5.11-12.32-7.67-21.62-7.67c-9.3,0-16.51,2.56-21.62,7.67c-5.12,5.12-7.67,12.51-7.67,22.18v37.94
		c0,9.67,2.55,17.07,7.67,22.18C524.55,210.88,531.75,213.43,541.06,213.43z"/>
	<path class="st2" d="M708.46,244.12c-19.53,0-34.88-5.44-46.04-16.32s-16.74-25.71-16.74-44.5V87.88h34.88v95.14
		c0,9.86,2.42,17.44,7.25,22.74c4.83,5.3,11.72,7.95,20.65,7.95c8.74,0,15.58-2.65,20.51-7.95c4.93-5.3,7.39-12.88,7.39-22.74V87.88
		h34.88v95.42c0,18.79-5.68,33.62-17.02,44.5C742.86,238.68,727.61,244.12,708.46,244.12z"/>
	<path class="st2" d="M818.1,241.33V87.88h34.04v29.29h0.84c1.49-10.04,5.95-17.9,13.39-23.58c7.44-5.67,16.92-8.51,28.46-8.51
		c15.81,0,28.46,5.16,37.94,15.48c9.49,10.32,14.23,24.41,14.23,42.27v12.56h-36.55v-10.04c0-9.49-2.47-16.88-7.39-22.18
		c-4.93-5.3-12.04-7.95-21.34-7.95c-19.16,0-28.74,10.7-28.74,32.08v94.02H818.1z"/>
	<path class="st2" d="M1044.09,244.12c-13.02,0-24.41-2.47-34.18-7.39s-17.35-11.9-22.74-20.92c-5.4-9.02-8.09-19.67-8.09-31.95
		v-38.5c0-12.28,2.69-22.92,8.09-31.95c5.39-9.02,12.97-15.99,22.74-20.92c9.76-4.93,21.16-7.39,34.18-7.39
		c19.34,0,34.78,4.98,46.31,14.93c11.53,9.95,17.58,23.48,18.14,40.59h-34.04c-0.56-8-3.58-14.18-9.07-18.55
		c-5.49-4.37-12.6-6.56-21.34-6.56c-9.3,0-16.65,2.56-22.04,7.67c-5.4,5.12-8.09,12.42-8.09,21.9v38.78
		c0,9.49,2.69,16.84,8.09,22.04c5.39,5.21,12.74,7.81,22.04,7.81c8.93,0,16.09-2.18,21.48-6.56c5.39-4.37,8.37-10.55,8.93-18.55
		h34.04c-0.56,17.12-6.6,30.65-18.14,40.59C1078.87,239.15,1063.43,244.12,1044.09,244.12z"/>
	<path class="st2" d="M1210.93,244.12c-13.02,0-24.37-2.51-34.04-7.53c-9.67-5.02-17.16-12.04-22.46-21.06
		c-5.3-9.02-7.95-19.57-7.95-31.67v-38.5c0-12.09,2.65-22.64,7.95-31.67c5.3-9.02,12.79-16.04,22.46-21.06
		c9.67-5.02,21.02-7.53,34.04-7.53c12.83,0,24.04,2.51,33.62,7.53c9.58,5.02,17.02,12.04,22.32,21.06
		c5.3,9.02,7.95,19.58,7.95,31.67v27.62h-94.58v10.88c0,21.76,10.32,32.64,30.97,32.64c16,0,25.39-5.3,28.18-15.9h34.32
		c-2.61,13.21-9.62,23.76-21.06,31.67C1241.2,240.17,1227.29,244.12,1210.93,244.12z M1180.24,145.36v5.86l60.82-0.28v-5.86
		c0-10.6-2.51-18.74-7.53-24.41c-5.02-5.67-12.55-8.51-22.6-8.51c-10.23,0-17.9,2.89-23.02,8.65
		C1182.79,126.57,1180.24,134.75,1180.24,145.36z"/>
</g>
<g class="st0">
	<path class="st1" d="M1332.93,230.61l49.58-64.05l-50.65-64.59h35.91l49.85,64.32l-49.85,64.32H1332.93z"/>
</g>
</svg>
