<?xml version="1.0" encoding="UTF-8"?>
<svg xmlns="http://www.w3.org/2000/svg" id="a" width="865.76" height="682.89" viewBox="0 0 865.76 682.89">
  <g>
    <path d="M489.82,623.38h0c2.22-.13,3.91-2.04,3.76-4.26l-12.96-173.86-7.99,.47,12.96,173.92c.15,2.19,2.03,3.85,4.22,3.73Z" fill="#e6e7e8" stroke="#002346" stroke-linecap="round" stroke-linejoin="round"></path>
    <path d="M370.36,623.38h0c2.22,.16,4.14-1.52,4.27-3.74l9.44-174.08-7.98-.56-9.44,174.15c-.14,2.19,1.52,4.08,3.71,4.24Z" fill="#e6e7e8" stroke="#002346" stroke-linecap="round" stroke-linejoin="round"></path>
    <path d="M443.32,248.75l77.62,3.49c6.01,.27,10.39,5.79,9.28,11.71l-33.9,180.81-130,4,77-200Z" fill="#e6e7e8" stroke="#002346" stroke-miterlimit="10"></path>
    <path d="M229.6,622.43h0c-2.14,.44-4.23-.91-4.71-3.04l-32.84-146.73,7.84-1.61,32.81,146.59c.49,2.18-.91,4.34-3.1,4.79Z" fill="#e6e7e8" stroke="#002346" stroke-linecap="round" stroke-linejoin="round"></path>
    <path d="M221.32,617.75v7s15,9,42,8l.84-4.96-14.84-5.04-28-5Z" fill="#fff" stroke="#002346" stroke-linecap="round" stroke-linejoin="round"></path>
    <path d="M263.32,628.75c-34-1-42-11-42-11v-23.09c0-.38,.53-.48,.67-.12h0c1.92,5.12,4.81,9.83,8.57,13.81,6.81,7.23,18.31,16.42,30,12.16,3.89-.21,4.88,1,4.91,2.18-.03,1.41-.73,5.96-2.14,6.06Z" fill="#278663" stroke="#002346" stroke-miterlimit="10"></path>
    <path d="M181.32,621.75v7s14,9,41,8l.84-4.96-14.84-5.04-27-5Z" fill="#fff" stroke="#002346" stroke-linecap="round" stroke-linejoin="round"></path>
    <path d="M98.4,622.82h0c-2.21-.22-3.81-2.21-3.57-4.42l16.46-149.13,7.96,.81-16.47,149.2c-.24,2.18-2.2,3.76-4.38,3.54Z" fill="#e6e7e8" stroke="#002346" stroke-linecap="round" stroke-linejoin="round"></path>
    <path d="M113.08,293.96l-37.1,1.92c-3.81,.2-6.61,3.67-5.98,7.44l26.91,161.49c1.11,6.68,6.73,11.67,13.49,11.99l75.41,3.59,15-47.14-87.74-139.29Z" fill="#fff" stroke="#002346" stroke-linecap="round" stroke-linejoin="round"></path>
    <path d="M181.2,450.1l-57.44,.55c-5.46,.05-10.16-3.82-11.16-9.19l-21.88-118.16c-.73-3.93,2.29-7.56,6.29-7.56h33.31" fill="none" stroke="#002346" stroke-linecap="round" stroke-linejoin="round"></path>
    <path d="M150.12,253.4s13.32-8.88,6.28-34.92l31.88,8.37-5.19,9.4v10.22s.18,3,1.24,3.8l7.42,32.69-7.79,8.08-35.06-9.09s-.72-6.92,.72-10.1,.5-18.45,.5-18.45Z" fill="#f2b3c1" stroke="#002346" stroke-miterlimit="10"></path>
    <path d="M469.93,446.08c-.17,.27-.35,.52-.53,.76-3.63,5.01-5.89,10.87-6.14,17.05-1.85,45.07-18.55,126.34-18.55,126.34-8.19,9.83-27-2.18-27-2.18,0,0,2.45-73.15,1.64-102.64s0-59.76,0-59.76l-40.38,20.3c-2.23,1.12-2.88,3.99-1.35,5.97,11.75,15.19,11.98,67.34,11.98,67.34l.24,3.54h0l4.94,70.69-30.58,6-31.13-108.07c-5.91-15.08-7.92-26-8.55-32.61-.4-4.19-.04-8.42,1.01-12.5,8.6-33.25,26.64-50.16,26.64-50.16h119.25c6.44,29.46,2.76,43.4-1.49,49.93Z" fill="#474747" stroke="#002346" stroke-miterlimit="10"></path>
    <path d="M497.88,347.33c-6.06,7.79-33.19,4.33-33.19,4.33-.28,9.23-4.6,24.82-4.6,24.82h-86l3.27-2.66c1.18-.96,1.36-2.7,.4-3.88-.07-.09-.15-.18-.24-.26-6.48-6.09-5.94-18.22-5.94-18.22-.19-14.23-2.3-17.88-2.3-17.88-4.58,3.2-9.33,6.16-14.23,8.85-28.83,13.27-60.47-68.67-60.47-68.67l2.8-2.87,13.67-14c.71-.74,1.86-.83,2.67-.2,8,6,27.17,32.66,27.17,32.66l13.6-34c1.62-7.62,5.91-14.41,12.09-19.15,13.63-10.68,33-10.4,33-10.4l31.33,3.35,30.9,6.51c.82,.1,1.63,.28,2.41,.53,3.42,1.24,6.45,3.36,8.79,6.14,11.69,12.71,18.81,38.92,18.81,38.92,12.7,38.96,6.06,66.08,6.06,66.08Z" fill="#fff" stroke="#002346" stroke-linecap="round" stroke-linejoin="round"></path>
    <path d="M403.76,200.99v17.68s-4.73,4.54-4.14,7.14l14.88,14.39h6.08c4.82-2.08,8.56-6.06,10.34-11v-10.49l-26.46-18.37-.7,.65Z" fill="#f2b3c1" stroke="#002346" stroke-miterlimit="10"></path>
    <path d="M400.02,223.6s-7.87,1-7.46,7.23l2.55,18.65,16.78-11.8-12.31-11.88s-.68-.32,.44-2.2Z" fill="#e6e7e8" stroke="#002346" stroke-miterlimit="10"></path>
    <path d="M423.82,238.39l15,11.09-2.14-19.11s-1.74-4.13-5.75-1.21c-1.32,3.76-3.81,6.99-7.11,9.23Z" fill="#e6e7e8" stroke="#002346" stroke-miterlimit="10"></path>
    <polygon points="406.03 241.8 414.32 250.75 410.68 308.18 422.7 308.89 422.32 250.75 428.32 241.75 424.32 237.75 420.56 240.2 414.5 240.2 411.89 237.68 406.03 241.8" fill="#474747" stroke="#002346" stroke-miterlimit="10"></polygon>
    <rect x="402.82" y="158.25" width="43" height="61" rx="21.5" ry="21.5" fill="#f2b3c1" stroke="#002346" stroke-miterlimit="10"></rect>
    <ellipse cx="399.62" cy="194.37" rx="5.68" ry="7.87" transform="translate(-44.74 189.43) rotate(-25.3)" fill="#f2b3c1" stroke="#002346" stroke-miterlimit="10"></ellipse>
    <path d="M456.3,168.25c0,3.34-4.57,9.24-9.66,13.46-.52,.43-1.32,.06-1.32-.62v-5.33s-13.27,.82-20.48-2.36c-.07,.36-.1,.72-.09,1.07,.04,1.76-1.83,2.94-3.46,2.28-3.29-1.35-6.16-3.62-8.24-6.59-2.85,4.2-6.02,8.17-9.48,11.88-.53,2.34-.78,4.73-.77,7.13,0,0-3.8-3.55-6.6-1.92-1.05,.41-1.86,1.28-2.19,2.36,0,0-14.7-18.85,6.88-31.53,0,0-2.47-12.59,16.06-12.84,5.32-.07,10.58,.98,15.54,2.9,7.69,2.98,20.09,8.87,23.09,16.66,.45,1.1,.69,2.27,.71,3.46Z" fill="#002346" stroke="#002346" stroke-miterlimit="10"></path>
    <path d="M598.14,390.21l36.18,249c.31,2.12,2.12,3.69,4.26,3.69h0c2.37,0,4.3-1.92,4.3-4.3,0-.14,0-.29-.02-.43l-23.51-234.42-1.11-11-20.1-2.54Z" fill="#fff" stroke="#002346" stroke-linecap="round" stroke-linejoin="round"></path>
    <path d="M613.21,641.39s-14.16,1.55-15.81-7.18l53.09-12,8.73,7.32s4.48,9.89-11.33,11.9l-34.68-.04Z" fill="#fff" stroke="#002346" stroke-miterlimit="10"></path>
    <path d="M498.73,636.36s-4.68,6,12.39,8.35l65.39,2.13s10.89,.91,8-12.48l-14.34-7.7s-46.72,2.92-47.25,3.72-24.19,5.98-24.19,5.98Z" fill="#fff" stroke="#002346" stroke-miterlimit="10"></path>
    <path d="M555.83,607.45s-6.4,11.51-25.51,15.23c0,0-35.58,1.88-31.59,13.68,0,0,4.51,8.88,47.78,3,0,0,33.19-7.16,38-5l.65-13.54-17.41-15.67-11.92,2.3Z" fill="#474747" stroke="#002346" stroke-miterlimit="10"></path>
    <polygon points="457.19 303.67 484.6 376.48 615.31 376.48 615.31 372.86 591.67 369.24 567.1 303.67 457.19 303.67" fill="#278663" stroke="#002346" stroke-miterlimit="10"></polygon>
    <polygon points="467.61 309.89 488.49 362.32 579.08 362.32 560.65 309.89 467.61 309.89" fill="#fff" stroke="#002346" stroke-linecap="round" stroke-linejoin="round"></polygon>
    <polygon points="401.62 369.24 455 369.24 450.58 376.48 406.53 376.48 401.62 369.24" fill="#fff" stroke="#002346" stroke-linecap="round" stroke-linejoin="round"></polygon>
    <path d="M394.26,616.8c-34.8,14.59-72.42,4-72.42,4-2.59-17.64,21.86-11,31.5-13.17s10.84-8.13,10.84-8.13l29-5.68,1.08,22.98Z" fill="#fff" stroke="#002346" stroke-linecap="round" stroke-linejoin="round"></path>
    <path d="M394.26,616.8v2.12c-9.17,14.35-58.78,9.64-58.78,9.64-13.41-1.17-13.64-7.76-13.64-7.76,0,0,37.62,10.59,72.42-4Z" fill="#474747" stroke="#002346" stroke-miterlimit="10"></path>
    <path d="M442.47,592.22v32.3c-14.58,7.7-23.27,0-23.27,0-12.24-7.35-22.83-1.47-22.83-1.47-4-6,15.06-15.42,15.06-15.42,6.11-5.16,8.92-18.08,8.92-18.08,15.51,8.27,22.12,2.67,22.12,2.67Z" fill="#fff" stroke="#002346" stroke-linecap="round" stroke-linejoin="round"></path>
    <path d="M442.47,624.52c0,2.27-1.16,4.39-3.07,5.61-3.89,2.52-8.18,4.37-12.68,5.48-26.1,4.47-30.35-12.56-30.35-12.56,0,0,10.59-5.88,22.83,1.47,0,0,8.69,7.7,23.27,0Z" fill="#474747" stroke="#002346" stroke-miterlimit="10"></path>
    <path d="M618.28,217.2s3.94,5.2,6.54,9.05c4.36,16.5,15.51-9.78,40.02-14.17l-9.39-11.74-17.92-10.74-19.25,27.6Z" fill="#f2b3c1" stroke="#002346" stroke-miterlimit="10"></path>
    <path d="M684.02,226.3c-18.14-6.79-30.28-5.19-30.28-5.19,0,0-13.45,1.58-32.71,12.79-.14-1-.2-5,6.21-10.31,0,0,6.76-6.69,23.7-10.12,0,0,18.91-4.81,26.69,3.89l6.39,8.94Z" fill="#fff" stroke="#002346" stroke-miterlimit="10"></path>
    <path d="M631.51,609.15s-2.73-.45-6,7.81c0,0-5.43,8.73-15.34,8.26,0,0-17.94,2.12-12.74,9,0,0,9.43,4.48,30.91-2.6,0,0,21.94-7.55,30.91-2.12,0,0-.62-14.47-4.91-22.34,0,0-20.1-3-20.1-2s-2.73,3.99-2.73,3.99Z" fill="#474747" stroke="#002346" stroke-miterlimit="10"></path>
    <rect x="159.82" y="178.25" width="41" height="59" rx="20.5" ry="20.5" fill="#f2b3c1" stroke="#002346" stroke-miterlimit="10"></rect>
    <path d="M261.44,376.62l-15.89-.82c-2.77-.14-5.49-.86-7.95-2.14-23.63-12.37-21.69-48.21-21.69-48.21-.25-5.31-2.41-3.61-2.41-3.61-3.38,4.57-3.62,40.71-3.62,40.71l-6.27,1c-4.82,1.45-7.47,13-7.47,13h-58.44c-34.46,.47-29-22.6-29-22.6l3.88-53.79c.71-31.56,31.37-47,31.37-47,0,0,3.37-1.4,6.2,.29l8,12c7.54,14.12,14,19.7,17.5,21.84,2.2,1.42,5.09,1.16,7-.63,7.84-7.8,1.75-36.38,1.75-36.38h10.37c33.95,3.17,45.5,67.88,47.22,78.88,.25,1.62,.54,3.24,.97,4.82,5.38,20.07,24.08,32.05,24.08,32.05-8.01,2.63-5.6,10.59-5.6,10.59Z" fill="#278663" stroke="#002346" stroke-miterlimit="10"></path>
    <path d="M291.44,376.62h-30c-2-8.6,5.53-10.59,5.53-10.59,3.64-.54,7.32-.73,11-.54h0c15.74,1.02,13.47,11.13,13.47,11.13Z" fill="#f2b3c1" stroke="#002346" stroke-miterlimit="10"></path>
    <path d="M209.88,362.54c18.71-.78,19.63,13.94,19.63,13.94h-33.37s2.36-10.52,7.47-13l6.27-.94Z" fill="#f2b3c1" stroke="#002346" stroke-miterlimit="10"></path>
    <path d="M278.04,461.97c0,13.41-1.16,21.53-2.57,26.44-2.07,7.17-4.63,7.52-4.63,7.52l-62.94,4.75c-29.58,1.07-26.7-10-26.7-10v-40.38c0-1.93-1.19-3.67-3-4.36-58.91-22.51-41.34-68.33-41.34-68.33l43.65,8.3,63.16,10.24,21.76,18.66c1.17,.99,2.18,2.15,3,3.44,9.32,15.04,9.61,43.72,9.61,43.72Z" fill="#474747" stroke="#002346" stroke-miterlimit="10"></path>
    <path d="M260.31,620.88c-19.36,5.78-38.73-23.42-38.73-23.42v-77.42c0-2.33-.67-3.22-1.24-3.55-.33-.18-.75-.06-.94,.28-.03,.05-.05,.11-.06,.16l-10.34,34.68-7.14,36.34c-.89,14.41,5.77,28.24,17.59,36.53h.07c-18.07,6.58-37.8-21.5-38.35-22.3h0v-111.46c4.09,10.39,26.7,10,26.7,10l55.82-4.22c0,14.46-13.27,50.4-13.27,50.4l-8.14,42.79c-2.34,14.89,18.03,31.19,18.03,31.19Z" fill="#f2b3c1" stroke="#002346" stroke-miterlimit="10"></path>
    <path d="M222.32,632.75c-34-1-41-11-41-11l-.12-19.54h0c.55,.8,20.28,28.88,38.35,22.3,3.89-.21,4.88,1,4.91,2.18-.03,1.41-.73,5.96-2.14,6.06Z" fill="#278663" stroke="#002346" stroke-miterlimit="10"></path>
    <path d="M150.93,390.21l-36.18,249c-.31,2.12-2.12,3.69-4.26,3.69h0c-2.37,0-4.3-1.92-4.3-4.3,0-.14,0-.29,.02-.43l23.52-234.42,1.1-11,20.1-2.54Z" fill="#fff" stroke="#002346" stroke-linecap="round" stroke-linejoin="round"></path>
    <path d="M308.67,259.36l-12.53,12.85s-23.62-35.1-13.75-34.53c0,0-7.53-10.73,.94-7.43,0,0,5.87-2.21,11.29,6l6.1,7.66h0s-1.87-9.17,3.07-8.7c0,0,1.17,9.26,3,11.44,.06-.02,4.88,7.02,1.88,12.71Z" fill="#f2b3c1" stroke="#002346" stroke-miterlimit="10"></path>
    <path d="M392.58,324.83l-17.44-10.13c-1.71-.98-2.94-2.62-3.39-4.54-.66-2.96-.68-6.03-.06-9,0,0-10.37-5.41-7.68-8,0,0,1.8-2.28,11.22,1.26h0c1.37,.51,2.88,1.14,4.57,1.91,.36,.16,.72-.24,.5-.57-1.05-1.6-2.48-4.43-1.07-6.42,.08-.13,.19-.23,.33-.29,.48-.28,1.09-.12,1.37,.36,0,0,0,.01,.01,.02,1.63,2.74,4.13,4.85,7.1,6,0,0,7.35,3.32,9.28,14.32,0-.05,0,2-4.74,15.08Z" fill="#f2b3c1" stroke="#002346" stroke-miterlimit="10"></path>
    <rect x="593.46" y="144.75" width="49" height="74" rx="24.5" ry="24.5" fill="#f2b3c1" stroke="#002346" stroke-miterlimit="10"></rect>
    <path d="M595.77,162.17c-1,2.41-2.06,5.25-2.45,6.57,0,0-4.48-8.85,3.65-27.13,0,0,4.86-13.46,17-6.92,0,0,6.73,2.31,16.93,1.35,0,0,15-2.5,18.08,5.77,0,0,23.27-1.35,22.31,22.5,0,0,1,42.89-23.08,38.66,0,0-11-.38-12.31-7.12,0,0,.57-11.64-4.81-13.61,0,0-4.81,2.84-6.35-3.7,0,0-1.54-11.15-8.08-9.42,0,0-3.65,.77-5-5.39l-1.51-6.19c-.18-.72-.91-1.17-1.63-.99-.2,.05-.38,.14-.54,.27-1.67,1.33-4.71,1.87-7.43,1.98-2.11,.09-3.98,1.41-4.78,3.36Z" fill="#002346" stroke="#002346" stroke-miterlimit="10"></path>
    <ellipse cx="633.91" cy="184.3" rx="5.15" ry="6.98" fill="#f2b3c1" stroke="#002346" stroke-miterlimit="10"></ellipse>
    <path d="M633.82,396.15H96.22v-19.68H632.3c.93,8.67,1.4,15.19,1.4,15.19,0,1.61,0,3.11,.12,4.49Z" fill="#e6e7e8" stroke="#002346" stroke-linecap="round" stroke-linejoin="round"></path>
    <g>
      <ellipse cx="155.52" cy="177.43" rx="11.4" ry="11.59" transform="translate(-17.57 17.09) rotate(-5.95)" fill="#002346" stroke="#002346" stroke-miterlimit="10"></ellipse>
      <ellipse cx="162.92" cy="183.79" rx="8.77" ry="8.92" transform="translate(-18.19 17.89) rotate(-5.95)" fill="#278663" stroke="#002346" stroke-miterlimit="10"></ellipse>
      <path d="M191.48,195.86c-2.24,2.23-7.16,5.78-16.9,7.57,0,0,1.13,6.24-6,12.58-2.07,1.84-3.46,4.37-3.79,7.16-.52,4.42,.21,11.04,6.55,17.62,0,0-4.99,.72-12.13-.9,0,0-3.86,4.85-11.05,5.23-2.96,.16-5.83-1.37-7.26-4.01-1.91-3.52-3.23-10.02-.1-21.75,0,0,6.2-40.82,29.18-43.22,0,0,10.42-2.78,19.96,1.19,9.62,4,12.79,21.08,10.02,28.59l-1.89-3.28c-1.53-2.66-1.82-3.18-2.79-5.85-.1-.27-.24-.52-.42-.73h0c-.89-1.06-2.43-1.16-3.41-.18Z" fill="#002346" stroke="#002346" stroke-miterlimit="10"></path>
    </g>
    <ellipse cx="162.11" cy="214.63" rx="3.71" ry="5.17" fill="#f2b3c1" stroke="#002346" stroke-miterlimit="10"></ellipse>
    <path d="M215.91,325.44s.91-12.19-2.09-29.19" fill="none" stroke="#002346" stroke-linecap="round" stroke-linejoin="round"></path>
    <polyline points="209.88 362.54 145.39 348.34 145.39 304.34" fill="none" stroke="#002346" stroke-linecap="round" stroke-linejoin="round"></polyline>
    <path d="M663.05,467.15l-3.73,122.6c.46,21.76,0,21,0,21l-31-2c-4.18-50.46-20.02-143.01-20.02-143.01-12-.59-19.23,.18-23.6,1.27h0c-1.64,.4-2.87,.85-3.8,1.28-1.6,.75-2.33,2.66-1.55,4.25,2.73,5.58,3.45,11.75,3.45,11.75l2.31,136.53c-14.79-3.07-36.79-7.07-36.79-7.07l-3-15-28.84-119.09c-12.06-34.32,0-45.92,0-45.92,9.28-15.77,103.9-32.59,103.9-32.59,2.26,12.86,11.84,12,11.84,12l35.48,3.46-4.65,50.54Z" fill="#278663" stroke="#002346" stroke-miterlimit="10"></path>
    <path d="M609.14,334.73s5.68-10.48,11.68-26.48" fill="none" stroke="#002346" stroke-linecap="round" stroke-linejoin="round"></path>
    <path d="M589.25,466.1s-12.43,2.14-27.43,8.14" fill="none" stroke="#002346" stroke-linecap="round" stroke-linejoin="round"></path>
    <path d="M614.4,645.82h0c-2.21-.22-3.81-2.21-3.57-4.42l20.46-173.13,7.96,.81-20.47,173.2c-.24,2.18-2.2,3.76-4.38,3.54Z" fill="#e6e7e8" stroke="#002346" stroke-linecap="round" stroke-linejoin="round"></path>
    <path d="M752.82,646.38h0c2.22-.13,3.91-2.04,3.76-4.26l-12.96-173.86-7.99,.47,12.96,173.92c.15,2.19,2.03,3.85,4.22,3.73Z" fill="#e6e7e8" stroke="#002346" stroke-linecap="round" stroke-linejoin="round"></path>
    <line x1="591.67" y1="369.24" x2="537.82" y2="371.25" fill="none" stroke="#002346" stroke-linecap="round" stroke-linejoin="round"></line>
    <path d="M574.65,367.29l-7.23,4.39c-1.4,.86-2.96,1.44-4.58,1.69-21.53,3.11-40-20.94-40-20.94l-44.83-52c-6.19-6.19-2.34-7.9-2.34-7.9-3.42-4.92,.85-6,.85-6-1.25-1.08-1.98-1.93-2.4-2.57-.59-.88-.11-2.11,.93-2.36,4.39-1.03,15.05,3.28,17.75,4.43,.14,.06,.27-.11,.17-.23-.74-.9-1.23-1.97-1.43-3.1-.17-.97,1.03-1.59,1.74-.92,3.6,3.34,7.03,6.85,10.29,10.52,3.44,4.14,3.14,9.93,2.9,12.02-.09,.73,.07,1.48,.5,2.09,5.92,8.34,51.96,33.04,51.96,33.04l9.53,17.53,6.19,10.33Z" fill="#f2b3c1" stroke="#002346" stroke-miterlimit="10"></path>
    <path d="M568.63,327.72s-12.74,6.9-11.14,23.41c0,0,.71,13.68,18.29,16.16,0,0,10.45,.36,13.57-4.7l-13.39-10.75-4.8-16-2.53-8.12Z" fill="#fff" stroke="#002346" stroke-miterlimit="10"></path>
    <path d="M718.86,263.79s0,.02,0,.03l-.17,4.16-.23,5.27-4.68,111.26c0,.14-.07,.27-.19,.35l-41.11,31.02-.87,.67c-.08,.06-.18,.1-.29,.1h-8.28s-.03,0-.05,0l-30.69-3.45s-.07,0-.11,0c-.8,.12-11.01,1.25-12.47-17.06-.12-1.38-.17-2.87-.17-4.48,0,0,0-.01,0-.02-.02-.23-.47-6.67-1.36-15.18-1.54-14.75-4.38-35.69-8.55-41.17-.21-.28-.64-.23-.79,.08-1.97,4.16-13.14,26.94-21.53,27.81-.07,0-.13,0-.19-.02-1.52-.45-20.68-6.75-18.48-35.45,.08-.91,.32-1.81,.73-2.63l.65-1.37c2.63-5.76,8.8-21.47,12.13-48.05,2.51-19.97,20.63-29.52,21.53-29.98,.02-.01,.05-.03,.07-.05,5.48-4.32,11.26-8.26,17.29-11.77,19.26-11.18,32.71-12.72,32.71-12.72,0,0,12.14-1.6,30.28,5.19,4.24,1.59,8.36,3.45,12.36,5.57,.04,.02,.07,.03,.11,.04,1.17,.26,21.95,5.24,22.38,31.84Z" fill="#474747" stroke="#002346" stroke-miterlimit="10"></path>
    <line x1="475.67" y1="292.53" x2="483.82" y2="298.25" fill="none" stroke="#002346" stroke-linecap="round" stroke-linejoin="round"></line>
    <line x1="476.52" y1="286.53" x2="487.32" y2="291.75" fill="none" stroke="#002346" stroke-linecap="round" stroke-linejoin="round"></line>
    <path d="M787.21,310.5l-26.82,151.25c-1.5,8.45-8.71,14.7-17.29,14.98l-123.66,4.02c-7.45,.24-13.62-5.73-13.62-13.18v-15.86c0-5.65,3.6-10.68,8.95-12.49l39.3-13.33c5.53-1.87,9.25-7.06,9.25-12.9l.04-107.37c-1.1-18.81,14.05-34.57,32.88-34.21l59.75,1.13c19.86,.37,34.69,18.41,31.22,37.97Z" fill="#fff" stroke="#002346" stroke-linecap="round" stroke-linejoin="round"></path>
    <line x1="340.89" y1="289.35" x2="349.82" y2="300.25" fill="none" stroke="#002346" stroke-linecap="round" stroke-linejoin="round"></line>
    <line x1="283.33" y1="230.25" x2="288.82" y2="238.25" fill="none" stroke="#002346" stroke-linecap="round" stroke-linejoin="round"></line>
    <path d="M283.8,240.2l5.61,9.61s9.99,1.74,11.45,14.34" fill="none" stroke="#002346" stroke-linecap="round" stroke-linejoin="round"></path>
    <path d="M369.28,333.58s.54-15.33-7.46-25.33" fill="none" stroke="#002346" stroke-linecap="round" stroke-linejoin="round"></path>
    <path d="M462.32,238.75c-15,23-5,73-5,73l-59-4-7,21s41,20,69,22" fill="none" stroke="#002346" stroke-linecap="round" stroke-linejoin="round"></path>
    <line x1="371.69" y1="301.16" x2="377.82" y2="304.25" fill="none" stroke="#002346" stroke-linecap="round" stroke-linejoin="round"></line>
    <line x1="371.47" y1="307.63" x2="376.32" y2="309.75" fill="none" stroke="#002346" stroke-linecap="round" stroke-linejoin="round"></line>
    <path d="M443.97,332.98v33.69c0,1.41-1.15,2.56-2.56,2.56,0,0,0,0-.01,0h-26.7c-1.42,0-2.56-1.14-2.57-2.56v-33.69h31.84Z" fill="#278663" stroke="#002346" stroke-miterlimit="10"></path>
    <path d="M456.67,345.25c-2.14-6.85-12.7-5.71-12.7-5.71v5.29s9.56-.43,8.28,6.28c0,0-1.29,5.57-8.28,9.13v5.14c17.13-6.71,12.7-20.13,12.7-20.13Z" fill="#278663" stroke="#002346" stroke-miterlimit="10"></path>
    <g>
      <rect x="99.82" y="24.69" width="151" height="110.1" fill="#e6e7e8" stroke="#002346" stroke-linecap="round" stroke-linejoin="round"></rect>
      <g>
        <rect x="106.11" y="30.99" width="97.52" height="4.72" fill="#fff" stroke="#002346" stroke-linecap="round" stroke-linejoin="round"></rect>
        <rect x="106.11" y="40.42" width="47.19" height="4.72" fill="#fff" stroke="#002346" stroke-linecap="round" stroke-linejoin="round"></rect>
      </g>
      <path d="M227.23,38.06c0,1.81-.68,3.46-1.81,4.7-1.27,1.46-3.16,2.38-5.27,2.38s-4-.91-5.27-2.38c-1.13-1.24-1.81-2.89-1.81-4.7,0-3.92,3.16-7.08,7.08-7.08s7.08,3.16,7.08,7.08Z" fill="#fff" stroke="#002346" stroke-linecap="round" stroke-linejoin="round"></path>
      <path d="M225.42,42.77c-1.27,1.46-3.16,2.38-5.27,2.38s-4-.91-5.27-2.38c.68-2.27,2.78-3.92,5.27-3.92s4.59,1.65,5.27,3.92Z" fill="#fff" stroke="#002346" stroke-linecap="round" stroke-linejoin="round"></path>
      <circle cx="220.15" cy="36.49" r="2.36" fill="#fff" stroke="#002346" stroke-linecap="round" stroke-linejoin="round"></circle>
      <g>
        <line x1="233.52" y1="34.92" x2="242.95" y2="34.92" fill="#fff" stroke="#002346" stroke-linecap="round" stroke-linejoin="round"></line>
        <line x1="233.52" y1="38.06" x2="242.95" y2="38.06" fill="#fff" stroke="#002346" stroke-linecap="round" stroke-linejoin="round"></line>
        <line x1="233.52" y1="41.21" x2="242.95" y2="41.21" fill="#fff" stroke="#002346" stroke-linecap="round" stroke-linejoin="round"></line>
      </g>
      <circle cx="175.32" cy="77.39" r="18.09" fill="#278663" stroke="#002346" stroke-miterlimit="10"></circle>
      <polygon points="169.83 82.73 169.83 72.04 180.81 77.39 169.83 82.73" fill="#fff" stroke="#002346" stroke-linecap="round" stroke-linejoin="round"></polygon>
      <rect x="115.55" y="120.64" width="119.54" height="3.15" rx="1.57" ry="1.57" fill="#fff" stroke="#002346" stroke-linecap="round" stroke-linejoin="round"></rect>
      <rect x="115.55" y="120.64" width="55.05" height="3.15" rx="1.57" ry="1.57" fill="#278663" stroke="#002346" stroke-miterlimit="10"></rect>
      <circle cx="171.39" cy="122.21" r="3.93" fill="#278663" stroke="#002346" stroke-miterlimit="10"></circle>
    </g>
  </g>
  <path d="M829.85,29.32v103.69c0,3.18-2.57,5.76-5.75,5.77h-139.15c-3.18,0-5.76-2.59-5.77-5.77V29.32c0-3.18,2.59-5.76,5.77-5.76h139.15c3.18,0,5.75,2.57,5.75,5.75h0Z" fill="#ebebeb" stroke="#002346" stroke-miterlimit="10"></path>
  <path d="M829.85,29.32v16.07h-150.67V29.39c0-3.18,2.59-5.76,5.77-5.76h139.15c3.15,0,5.72,2.54,5.75,5.69Z" fill="#474747" stroke="#002346" stroke-miterlimit="10"></path>
  <rect x="687.4" y="56.73" width="18.76" height="18.76" fill="#474747" stroke="#002346" stroke-miterlimit="10"></rect>
  <rect x="687.4" y="79.28" width="18.76" height="3.93" fill="#474747" stroke="#002346" stroke-miterlimit="10"></rect>
  <rect x="687.4" y="87.01" width="18.76" height="3.93" fill="#474747" stroke="#002346" stroke-miterlimit="10"></rect>
  <rect x="687.4" y="94.73" width="18.76" height="3.93" fill="#474747" stroke="#002346" stroke-miterlimit="10"></rect>
  <path d="M829.85,45.39v87.64c0,3.18-2.57,5.76-5.75,5.77h-107.38V45.39h113.13Z" fill="#fff" stroke="#002346" stroke-miterlimit="10"></path>
  <rect x="724.18" y="59.04" width="32.12" height="8.87" fill="#ebebeb" stroke="#002346" stroke-miterlimit="10"></rect>
  <rect x="764.1" y="56.73" width="52.52" height="26.97" fill="#ebebeb" stroke="#002346" stroke-miterlimit="10"></rect>
  <rect x="728.97" y="75.49" width="20.41" height="2.88" fill="#ebebeb" stroke="#002346" stroke-miterlimit="10"></rect>
  <rect x="725.59" y="89.38" width="91.03" height="4.79" fill="#ebebeb" stroke="#002346" stroke-miterlimit="10"></rect>
  <rect x="725.59" y="100.38" width="90.32" height="4.44" fill="#ebebeb" stroke="#002346" stroke-miterlimit="10"></rect>
  <rect x="725.59" y="111.91" width="90.32" height="4.44" fill="#ebebeb" stroke="#002346" stroke-miterlimit="10"></rect>
  <rect x="725.59" y="123.45" width="90.32" height="4.44" fill="#ebebeb" stroke="#002346" stroke-miterlimit="10"></rect>
  <g>
    <path d="M44.2,455.41c1.6-7.68,7.85-13.56,15.6-15.56,10.97-2.84,28.99-2.43,43.72,22.22,0,0,13.76,21.79,5.7,53.38,0,0-1.65-16.04-27.57-27.52-2.86-1.27-5.82-2.31-8.82-3.21-8.1-2.45-32.36-11.36-28.63-29.3Z" fill="#7cd295" stroke="#002346" stroke-miterlimit="10"></path>
    <path d="M137.11,428.58c-3.5,.65-6.72,2.45-8.86,5.24-4.17,5.44-7.32,16.85,3.4,39.73,0,0,15.82,32.62-10.04,71.55,0,0,41.71-18.18,52.24-56.66,3.64-13.32,2.59-27.53-3.27-40.07-5.31-11.34-15.29-23.18-33.46-19.79Z" fill="#7cd295" stroke="#002346" stroke-miterlimit="10"></path>
    <path d="M113.78,597.24s-20.23-29.17,14.68-58.67c.79-.66,1.59-1.29,2.41-1.92,6.58-5.1,46.31-38.64,18.96-85.6" fill="none" stroke="#002346" stroke-linecap="round" stroke-linejoin="round"></path>
    <path d="M84.56,462.54s36.94,23.88,20.91,66.08c0,0-17.83,43.08,1.1,67.74" fill="none" stroke="#002346" stroke-linecap="round" stroke-linejoin="round"></path>
    <path d="M35.91,530.24c.04-4.87,3.15-9.18,7.65-11.27,6.34-2.95,17.36-4.73,29.2,8.65,0,0,10.73,11.55,9.69,31.37,0,.1-.14,.13-.18,.04-.78-1.89-4.85-9.67-19.81-13.26-1.88-.45-3.8-.76-5.73-.97-5.19-.59-20.91-3.3-20.82-14.55Z" fill="#7cd295" stroke="#002346" stroke-miterlimit="10"></path>
    <path d="M146.23,554.08s25.25-19.66,51.83-.58c0,0,12.29,9.06,9.05,18.66-1.29,3.83-4.84,6.48-8.92,7.15-5.31,.87-14.33,.6-24.04-7.37,0,0-21.57-16.15-27.93-17.86Z" fill="#7cd295" stroke="#002346" stroke-miterlimit="10"></path>
    <path d="M119.64,596.8s3.61-60.77,63.09-41.39" fill="none" stroke="#002346" stroke-linecap="round" stroke-linejoin="round"></path>
    <polygon points="135.86 659.33 79.98 659.33 76.37 595.04 139.47 595.04 135.86 659.33" fill="#fff" stroke="#002346" stroke-miterlimit="10"></polygon>
    <path d="M78.18,621.02c3.66-1.71,9.14-3.66,15.77-3.52,6.47,.13,10.56,2.18,14.88,3.52,6.22,1.94,15.57,3.25,28.83,0" fill="none" stroke="#002346" stroke-linecap="round" stroke-linejoin="round"></path>
    <path d="M78.18,628.94c3.66-1.71,9.14-3.66,15.77-3.52,6.47,.13,10.56,2.18,14.88,3.52,6.22,1.94,15.57,3.25,28.83,0" fill="none" stroke="#002346" stroke-linecap="round" stroke-linejoin="round"></path>
    <path d="M61.05,533.39s24.34,9.69,30.65,61.65" fill="none" stroke="#002346" stroke-linecap="round" stroke-linejoin="round"></path>
  </g>
  <circle cx="516.15" cy="77.83" r="45.5" fill="#e6e7e8" stroke="#002346" stroke-miterlimit="10"></circle>
  <circle cx="516.15" cy="77.83" r="39.11" fill="#fff" stroke="#002346" stroke-miterlimit="10"></circle>
  <polyline points="512.96 58.67 512.96 84.21 532.12 84.21" fill="none" stroke="#002346" stroke-linecap="round" stroke-linejoin="round"></polyline>
</svg>
