<?xml version="1.0" standalone="no"?>
<!DOCTYPE svg PUBLIC "-//W3C//DTD SVG 20010904//EN"
 "http://www.w3.org/TR/2001/REC-SVG-20010904/DTD/svg10.dtd">
<svg version="1.0" xmlns="http://www.w3.org/2000/svg"
 width="609.000000pt" height="610.000000pt" viewBox="0 0 609.000000 610.000000"
 preserveAspectRatio="xMidYMid meet">

<g transform="translate(0.000000,610.000000) scale(0.100000,-0.100000)"
fill="#000000" stroke="none">
<path d="M0 3050 l0 -3050 3045 0 3045 0 0 3050 0 3050 -3045 0 -3045 0 0
-3050z m3161 2589 c52 -22 101 -46 109 -53 8 -7 36 -25 63 -40 73 -42 256
-228 320 -326 132 -204 283 -510 252 -510 -3 0 -23 9 -45 20 -21 11 -74 29
-117 41 -70 19 -95 21 -243 16 -126 -4 -190 -12 -271 -31 -303 -70 -529 -157
-924 -352 -374 -185 -558 -293 -659 -388 -27 -25 -50 -45 -51 -43 -9 17 -48
370 -57 525 -14 248 -3 383 41 514 59 175 255 370 435 434 86 31 226 64 355
84 151 23 258 54 381 111 83 38 87 39 201 39 113 0 117 -1 210 -41z m884
-1325 c44 -8 105 -17 135 -21 30 -3 60 -9 66 -14 19 -16 219 -29 657 -44 409
-15 494 -22 485 -44 -2 -4 -92 -54 -201 -110 -208 -107 -457 -245 -567 -316
-203 -130 -418 -250 -428 -240 -4 4 -11 23 -17 42 -7 26 -10 -45 -10 -258 -1
-227 -5 -319 -18 -404 -36 -230 -98 -423 -177 -545 -39 -60 -145 -160 -209
-196 -135 -75 -294 -104 -588 -104 l-213 0 0 -825 0 -825 -415 0 -415 0 0 30
c0 17 -4 30 -10 30 -6 0 -11 342 -12 993 l-3 992 -40 -1 c-69 -1 -194 -11
-359 -30 -138 -15 -177 -16 -295 -6 -213 18 -257 30 -496 136 -96 42 -178 120
-221 211 -39 79 -42 119 -19 222 21 94 26 103 100 191 90 107 197 189 325 249
25 12 86 40 135 63 50 24 151 62 225 86 74 25 144 51 157 59 12 8 129 42 260
76 155 39 278 77 353 109 139 58 408 174 470 202 56 26 184 75 360 139 388
142 748 198 985 153z"/>
<path d="M4095 3948 c42 -168 55 -190 32 -54 -7 38 -18 71 -25 74 -9 3 -11 -3
-7 -20z"/>
<path d="M1995 3687 c-30 -12 -78 -38 -145 -79 -19 -12 -59 -41 -87 -65 -29
-25 -57 -42 -63 -38 -5 3 -10 0 -11 -7 0 -7 -34 -40 -75 -73 -80 -65 -91 -90
-45 -100 41 -9 93 16 127 60 58 75 198 216 221 221 13 4 23 10 23 14 0 4 15
11 34 14 19 4 37 13 40 21 3 8 12 15 20 15 7 0 16 7 20 15 7 18 -16 19 -59 2z"/>
<path d="M4151 3674 c0 -11 3 -14 6 -6 3 7 2 16 -1 19 -3 4 -6 -2 -5 -13z"/>
<path d="M3284 3020 c-18 -19 -85 -67 -150 -105 l-117 -70 73 -3 c41 -2 86 2
100 8 41 17 95 79 115 131 24 67 16 81 -21 39z"/>
</g>
</svg>
